<svg id="SvgjsSvg1011" width="288" height="288" xmlns="http://www.w3.org/2000/svg" version="1.1" xmlns:xlink="http://www.w3.org/1999/xlink" xmlns:svgjs="http://svgjs.com/svgjs"><defs id="SvgjsDefs1012"></defs><g id="SvgjsG1013"><svg xmlns="http://www.w3.org/2000/svg" viewBox="0 0 92 92" width="288" height="288"><path d="M60.1 44.2c3.7-3.6 6-8.7 6-14.2 0-11-9-20-20-20H25c-2.2 0-4 1.8-4 4v64c0 2.2 1.8 4 4 4h26c11 0 20-9 20-20 0-7.7-4.4-14.4-10.9-17.8zM29 18h17.1c6.6 0 12 5.4 12 12s-5.4 12-12 12H29V18zm22 56H29V50h22c6.6 0 12 5.4 12 12s-5.4 12-12 12z" fill="#ffffff" class="color000 svgShape"></path></svg></g></svg>