<svg id="SvgjsSvg1049" width="288" height="288" xmlns="http://www.w3.org/2000/svg" version="1.1" xmlns:xlink="http://www.w3.org/1999/xlink" xmlns:svgjs="http://svgjs.com/svgjs"><defs id="SvgjsDefs1050"></defs><g id="SvgjsG1051"><svg xmlns="http://www.w3.org/2000/svg" viewBox="0 0 512 512" width="288" height="288"><path fill="#ffffff" d="M456 89.3v333.3h33.3c9.2 0 16.7 7.5 16.7 16.7v33.3c0 9.2-7.5 16.7-16.7 16.7H322.7c-9.2 0-16.7-7.5-16.7-16.7v-33.3c0-9.2 7.5-16.7 16.7-16.7H356V289.3H156v133.3h33.3c9.2 0 16.7 7.5 16.7 16.7v33.3c0 9.2-7.5 16.7-16.7 16.7H22.7c-9.2 0-16.7-7.5-16.7-16.7v-33.3c0-9.2 7.5-16.7 16.7-16.7H56V89.3H22.7C13.5 89.3 6 81.9 6 72.7V39.3c0-9.2 7.5-16.7 16.7-16.7h166.7c9.2 0 16.7 7.5 16.7 16.7v33.3c0 9.2-7.5 16.7-16.7 16.7H156v133.3h200V89.3h-33.3c-9.2 0-16.7-7.5-16.7-16.7V39.3c0-9.2 7.5-16.7 16.7-16.7h166.7c9.2 0 16.7 7.5 16.7 16.7v33.3c0 9.2-7.5 16.7-16.7 16.7H456z" class="color2196f3 svgShape"></path></svg></g></svg>